<svg width="48" height="52" viewBox="0 0 48 52" fill="none" xmlns="http://www.w3.org/2000/svg">
<path d="M4.33908 15.7884C7.64122 10.5825 12.9877 6.68506 19.516 5.40449C23.8821 4.54697 28.2039 4.97385 32.09 6.41782C32.1432 6.43936 32.1964 6.46087 32.2483 6.47987C36.0052 7.90737 39.3491 10.2874 41.9267 13.3894C44.3334 16.2875 46.0712 19.8101 46.8477 23.7683C49.3252 36.3866 41.1034 48.625 28.4851 51.1012C15.8655 53.5788 3.62849 45.357 1.15094 32.7387C-0.0447755 26.6474 1.2586 20.6473 4.33908 15.7884Z" fill="#F5B09A"/>
<path d="M19.3476 5.19167C23.4439 4.38735 27.6378 4.61661 31.3351 5.85286C31.2756 5.26387 31.2819 4.89148 31.3174 4.13403C31.4137 2.08206 31.8608 0.436684 32.3155 0.458217C32.7677 0.47975 33.0565 2.14668 32.9628 4.18598C33.6594 3.28413 34.2801 2.75465 34.5461 2.91045C34.9375 3.14224 34.4093 4.76229 33.3643 6.53179C33.2972 6.64579 33.306 6.62931 33.2376 6.73697C36.4245 7.73129 39.7647 10.3469 41.9268 13.3894C41.6583 13.4629 41.386 13.5287 41.106 13.5832C36.7196 14.4445 32.636 12.466 31.9887 9.16516C31.8139 8.27344 31.9178 7.38043 32.2332 6.52924C32.1876 6.51151 32.142 6.49251 32.0951 6.47478C32.0825 6.46971 32.0685 6.46593 32.0546 6.46086C28.9614 10.5863 22.993 14.0772 15.7123 15.506C11.6756 16.2989 7.77176 16.3495 4.33789 15.7884C7.00544 10.4368 12.8193 6.47351 19.3476 5.19167Z" fill="#222221"/>
<path d="M15.3803 8.26709C14.4025 8.31522 13.6235 8.57489 12.975 9.10308C12.3695 9.59707 12.2365 10.1632 12.5836 10.6078C12.937 11.06 13.5272 11.117 14.2682 10.7294C14.8838 10.4065 15.4398 9.9986 16.1745 9.8732C16.6153 9.79847 16.9459 9.52742 16.9345 9.08282C16.9218 8.57237 16.5076 8.38362 16.0238 8.30509C15.778 8.26582 15.5222 8.27469 15.3803 8.26709Z" fill="white"/>
<path d="M11.104 10.9602C10.6227 11.0349 10.1756 11.6669 10.2604 12.1305C10.3238 12.4826 10.5707 12.6562 10.9659 12.6017C11.4485 12.5346 11.8767 11.9152 11.7741 11.4491C11.6993 11.1071 11.4701 10.9323 11.104 10.9602Z" fill="white"/>
<path d="M7.65371 19.8237C7.36624 19.7728 7.14045 19.5422 7.10157 19.2491C7.06135 18.9436 7.23236 18.6503 7.51895 18.5347C9.25869 17.8359 11.1612 17.6601 13.174 18.0119C15.7725 18.4663 17.6187 19.6451 17.6961 19.6944C17.9587 19.8651 18.0707 20.1926 17.9647 20.4879C17.8588 20.7831 17.5641 20.9654 17.253 20.9296L7.69308 19.8293C7.68023 19.8271 7.66736 19.8249 7.65371 19.8237Z" fill="#222221"/>
<path d="M32.9565 15.9062C33.2101 15.761 33.3448 15.4683 33.2828 15.1795C33.2185 14.8783 32.9574 14.6594 32.6498 14.6467C30.7765 14.5747 28.9261 15.0512 27.149 16.0602C24.8549 17.3634 23.5142 19.0959 23.4577 19.1682C23.2674 19.4175 23.2738 19.7642 23.4723 20.0059C23.6709 20.2477 24.0106 20.3211 24.2913 20.1819L32.9212 15.9241C32.9331 15.9191 32.9443 15.913 32.9565 15.9062Z" fill="#222221"/>
<path d="M28.076 25.3196C28.2065 26.395 29.1856 27.1626 30.2622 27.0308C31.3389 26.9004 32.1052 25.9213 31.9747 24.8446C31.843 23.768 30.8639 23.0017 29.7885 23.1334C28.7119 23.2626 27.9455 24.243 28.076 25.3196Z" fill="#222221"/>
<path d="M12.8699 27.7908C13.0004 28.8674 13.9795 29.6338 15.0562 29.5021C16.1341 29.3716 16.8991 28.3912 16.7687 27.3158C16.6369 26.2404 15.6591 25.4728 14.5824 25.6046C13.5058 25.7363 12.7395 26.7154 12.8699 27.7908Z" fill="#222221"/>
<path d="M25.2855 26.0418C25.7592 27.3984 25.9859 28.7208 26.0556 30.0685C26.0771 30.4915 26.0607 30.9235 25.9973 31.3414C25.7959 32.6702 24.9346 33.5517 23.6123 33.7164C22.1974 33.8937 20.7965 33.7341 19.4235 33.3617C19.1448 33.2857 18.8699 33.1464 18.6305 32.9817C17.7046 32.3446 17.6274 31.4707 18.4089 30.66C18.5444 30.5181 18.6939 30.3864 18.8471 30.2661C20.034 29.3313 20.4368 28.0672 20.4 26.6131C20.3861 26.0557 20.3709 25.4984 20.3785 24.9424C20.3861 24.4142 20.4722 23.8936 20.6724 23.4034C21.2335 22.024 22.6977 21.7631 23.654 22.9043C24.4406 23.8429 24.9384 24.955 25.2855 26.0418Z" fill="#B36554"/>
<path d="M24.0709 36.3864C23.8265 36.4066 23.5922 36.4497 23.3692 36.5092C21.5516 36.9981 19.8809 38.8196 20.2077 41.3542C20.2571 41.7392 20.6092 42.0166 20.9955 41.9621C21.3819 41.9127 21.6542 41.5594 21.6035 41.1743C21.3806 39.4403 22.5066 38.1977 23.734 37.8683C24.9019 37.5555 26.47 37.9912 27.3782 40.1559C27.5289 40.5144 27.938 40.6841 28.3003 40.5321C28.6587 40.3813 28.8272 39.9684 28.6765 39.61C27.5846 37.0083 25.6492 36.2521 24.0709 36.3864Z" fill="#B36554"/>
<path d="M15.3639 36.2353C15.9085 38.5621 14.4633 40.8915 12.1365 41.4362C9.80964 41.9808 7.48028 40.5356 6.93563 38.2088C6.39097 35.8819 7.83621 33.5525 10.163 33.0079C12.4911 32.4632 14.8192 33.9085 15.3639 36.2353Z" fill="#D78B7A"/>
<path d="M40.1798 32.1455C40.7245 34.4723 39.2792 36.8017 36.9524 37.3464C34.6256 37.891 32.2962 36.4458 31.7515 34.1189C31.2069 31.7921 32.6521 29.4628 34.9789 28.9181C37.307 28.3735 39.6351 29.8174 40.1798 32.1455Z" fill="#D78B7A"/>
</svg>
