<svg width="170" height="170" viewBox="0 0 170 170" fill="none" xmlns="http://www.w3.org/2000/svg">
<path d="M141.667 56.6667L85.0002 92.0833L28.3335 56.6667V127.5H141.667V56.6667ZM141.667 42.5H28.3335L85.0002 77.8458L141.667 42.5Z" fill="#6DB3B6"/>
<path d="M28.3332 141.666H141.667C149.458 141.666 155.833 135.291 155.833 127.5V42.4997C155.833 34.708 149.458 28.333 141.667 28.333H28.3332C20.5415 28.333 14.1665 34.708 14.1665 42.4997V127.5C14.1665 135.291 20.5415 141.666 28.3332 141.666ZM141.667 42.4997L84.9998 77.8455L28.3332 42.4997H141.667ZM28.3332 56.6663L84.9998 92.083L141.667 56.6663V127.5H28.3332V56.6663Z" fill="#F6F1F1"/>
</svg>
