<svg width="48" height="52" viewBox="0 0 48 52" fill="none" xmlns="http://www.w3.org/2000/svg">
<path d="M4.42708 15.6406C7.76088 10.4575 13.1302 6.59682 19.6635 5.35804C24.0334 4.52965 28.3502 4.98308 32.2261 6.45112C32.2793 6.47266 32.3312 6.49548 32.3844 6.51448C36.1312 7.96605 39.4586 10.3664 42.0147 13.4823C44.4023 16.3943 46.1161 19.9269 46.8672 23.889C49.2637 36.5175 40.9672 48.6988 28.3375 51.094C15.7078 53.4905 3.52649 45.194 1.13126 32.5643C-0.0239179 26.4667 1.3162 20.4779 4.42708 15.6406Z" fill="#2AD09E"/>
<path d="M19.4974 5.144C23.5975 4.36628 27.7888 4.62087 31.4748 5.88118C31.419 5.29093 31.4279 4.91981 31.4684 4.16235C31.5786 2.11166 32.0359 0.470092 32.4893 0.494158C32.9415 0.518224 33.2189 2.18636 33.1125 4.2244C33.8142 3.32761 34.4387 2.80197 34.7034 2.9603C35.0936 3.19463 34.554 4.81086 33.4989 6.57276C33.4305 6.68676 33.4393 6.66904 33.3709 6.7767C36.5502 7.79128 39.8726 10.4259 42.0145 13.481C41.746 13.5532 41.4724 13.6178 41.1925 13.6698C36.8023 14.5032 32.7338 12.4981 32.1068 9.19472C31.9384 8.30174 32.0473 7.41001 32.3677 6.56136C32.3221 6.54362 32.2765 6.52461 32.2297 6.50562C32.217 6.50055 32.2031 6.49677 32.1892 6.4917C29.0707 10.5956 23.082 14.0472 15.7962 15.4291C11.7556 16.1955 7.85312 16.2221 4.42432 15.6394C7.12734 10.3081 12.964 6.38277 19.4974 5.144Z" fill="#222221"/>
<path d="M15.5127 8.19263C14.5349 8.23443 13.7546 8.48903 13.1023 9.01343C12.4943 9.50362 12.3575 10.0685 12.702 10.5157C13.0529 10.9704 13.6419 11.0312 14.3854 10.6474C15.0023 10.3282 15.5608 9.92413 16.2955 9.8038C16.7363 9.7316 17.0682 9.46308 17.0606 9.01849C17.0517 8.50803 16.6388 8.31679 16.1549 8.23573C15.9092 8.19393 15.6546 8.20023 15.5127 8.19263Z" fill="white"/>
<path d="M11.2201 10.8576C10.7387 10.9286 10.2878 11.5581 10.3689 12.023C10.4297 12.3751 10.6767 12.5499 11.0719 12.4979C11.5557 12.4346 11.9864 11.8177 11.8876 11.3504C11.8154 11.0084 11.5874 10.8323 11.2201 10.8576Z" fill="white"/>
<path d="M35.7749 19.8971C36.065 19.8578 36.298 19.6349 36.3487 19.3436C36.4019 19.0396 36.241 18.7406 35.9598 18.614C34.2473 17.8489 32.355 17.6007 30.3321 17.8755C27.7178 18.2302 25.8292 19.3372 25.7494 19.3853C25.4809 19.5462 25.3555 19.8705 25.4505 20.1681C25.5442 20.4658 25.8317 20.6596 26.1446 20.6368L35.7369 19.9009C35.7496 19.9009 35.7635 19.8996 35.7749 19.8971Z" fill="#222221"/>
<path d="M9.15609 23.7196C8.86603 23.7589 8.58229 23.6069 8.45562 23.3396C8.32389 23.0609 8.39863 22.7291 8.63676 22.5328C10.082 21.3396 11.8414 20.5961 13.8655 20.3212C16.4786 19.9665 18.5951 20.5302 18.6838 20.553C18.9865 20.6353 19.1917 20.9153 19.1803 21.2281C19.1689 21.541 18.9434 21.8044 18.6369 21.8652L9.19662 23.7146C9.18268 23.7158 9.16875 23.7183 9.15609 23.7196Z" fill="#222221"/>
<path d="M30.4587 23.9475C30.4283 23.9526 30.3967 23.9576 30.3663 23.9627C29.6848 24.0894 29.092 24.4732 28.6994 25.0457C28.3067 25.6182 28.1598 26.3085 28.2877 26.99C28.351 27.3345 28.6664 27.5701 29.0274 27.4979C29.372 27.4333 29.5987 27.1027 29.5353 26.7582C29.4707 26.4099 29.5455 26.0565 29.7469 25.7639C29.947 25.4713 30.2497 25.275 30.5981 25.2104C30.9641 25.1382 31.2998 25.2192 31.5936 25.4206C31.8862 25.622 32.0838 25.9247 32.1484 26.2731C32.2118 26.6176 32.5424 26.8583 32.8881 26.781C33.2327 26.7164 33.4607 26.3858 33.3961 26.0412C33.2694 25.3585 32.8843 24.767 32.3118 24.3744C31.7646 23.9994 31.1098 23.8487 30.4587 23.9475Z" fill="#222221"/>
<path d="M15.2185 26.1516C15.1881 26.1567 15.1564 26.1617 15.126 26.1668C14.4446 26.2935 13.8518 26.6773 13.4591 27.2498C13.0665 27.821 12.9195 28.5126 13.0475 29.1941C13.1095 29.531 13.4287 29.7565 13.7644 29.7058C13.772 29.7045 13.7796 29.7033 13.7872 29.702C14.1317 29.6387 14.3584 29.3068 14.2951 28.9623C14.2305 28.6139 14.3053 28.2606 14.5067 27.9692C14.7068 27.6766 15.0108 27.4803 15.3591 27.4157C15.7036 27.3435 16.0608 27.4246 16.3534 27.626C16.646 27.8274 16.8436 28.1301 16.9082 28.4784C16.9728 28.823 17.3173 29.0548 17.6479 28.9864C17.9925 28.9218 18.2205 28.5911 18.1559 28.2466C18.0292 27.5639 17.6441 26.9724 17.0716 26.5797C16.5244 26.2035 15.8696 26.0541 15.2185 26.1516Z" fill="#222221"/>
<path d="M25.4871 26.0238C25.952 27.3829 26.1698 28.7052 26.2306 30.0542C26.2496 30.4772 26.2294 30.9092 26.1635 31.3259C25.9545 32.6533 25.0868 33.5286 23.7632 33.6844C22.3484 33.8528 20.9474 33.6831 19.5782 33.3031C19.2995 33.2259 19.026 33.084 18.7878 32.9181C17.867 32.2759 17.7948 31.4006 18.5814 30.595C18.7182 30.4544 18.8676 30.324 19.0222 30.2037C20.2141 29.2765 20.6257 28.0162 20.5978 26.5621C20.5877 26.0047 20.5763 25.4474 20.5877 24.8914C20.5979 24.3632 20.689 23.8438 20.8904 23.3549C21.4604 21.9793 22.9259 21.7285 23.8747 22.8748C24.6574 23.821 25.1476 24.9344 25.4871 26.0238Z" fill="#3C9F81"/>
<path d="M15.5061 36.1506C16.0356 38.4799 14.5764 40.7991 12.247 41.3286C9.91767 41.858 7.59843 40.3989 7.06897 38.0695C6.53951 35.7401 7.9987 33.4209 10.3281 32.8915C12.6574 32.362 14.9754 33.8212 15.5061 36.1506Z" fill="#3C9F81"/>
<path d="M40.3372 32.2203C40.8666 34.5496 39.4074 36.8688 37.0781 37.3983C34.7487 37.9278 32.4295 36.4686 31.9 34.1392C31.3706 31.8086 32.8297 29.4907 35.1591 28.9612C37.4885 28.4305 39.8077 29.8909 40.3372 32.2203Z" fill="#3C9F81"/>
<path d="M20.5968 37.0917C20.5904 37.0765 20.9248 36.998 21.4657 36.8815C22.1953 36.7244 23.2998 36.4977 24.455 36.2633C24.4765 36.2595 24.4993 36.2545 24.5208 36.2507H24.5221C25.5861 36.0353 26.6716 35.8187 27.5443 35.6452C28.5602 35.4438 29.2733 35.3032 29.2733 35.3032C29.2961 36.3862 29.0364 37.4869 28.7083 38.5775L24.3017 43.0829C22.4625 42.4002 20.7868 39.6326 20.5968 37.0917Z" fill="#3C9F81"/>
<path d="M24.7502 39.8938C25.3202 38.84 26.7743 37.9267 28.2626 38.3891C28.3867 38.4271 28.5425 38.4942 28.7021 38.5765C28.6464 38.764 28.5919 38.9527 28.5324 39.1389C28.1473 40.3498 27.7015 41.7089 26.8465 42.5285C26.2715 43.0794 25.4177 43.3543 24.6653 43.1922C24.5425 43.1656 24.4209 43.1301 24.2993 43.0845C24.0523 41.942 24.3031 40.7197 24.7502 39.8938Z" fill="white"/>
</svg>
