<svg width="48" height="52" viewBox="0 0 48 52" fill="none" xmlns="http://www.w3.org/2000/svg">
<path d="M4.37701 15.8005C7.67535 10.6047 13.013 6.71609 19.5299 5.43805C23.8884 4.58433 28.2026 5.00992 32.0823 6.45262C32.1355 6.47289 32.1874 6.4957 32.2406 6.5147C35.9912 7.94094 39.3288 10.3172 41.9001 13.4141C44.3016 16.3071 46.0357 19.8246 46.8096 23.7765C49.2795 36.3733 41.0679 48.5888 28.4698 51.0575C15.8718 53.5274 3.65755 45.3158 1.18759 32.7177C-0.00178993 26.6391 1.30033 20.6492 4.37701 15.8005Z" fill="#A7D7C5"/>
<path d="M19.3629 5.22641C23.4529 4.42462 27.6392 4.65386 31.3289 5.89011C31.2706 5.30112 31.2757 4.93002 31.3124 4.17383C31.41 2.12567 31.8571 0.482827 32.3105 0.50436C32.7627 0.525893 33.0503 2.19025 32.9565 4.22575C33.6519 3.32643 34.2726 2.79696 34.5373 2.95276C34.9287 3.18329 34.3992 4.80207 33.3568 6.56777C33.2897 6.68177 33.2985 6.66532 33.2301 6.77299C36.4119 7.7673 39.7457 10.3779 41.9028 13.4165C41.6343 13.49 41.3633 13.5558 41.0833 13.609C36.7033 14.4678 32.6285 12.4906 31.9825 9.19607C31.809 8.30562 31.9116 7.41517 32.227 6.56526C32.1814 6.54752 32.1358 6.52852 32.0889 6.51079C32.0762 6.50572 32.0623 6.5019 32.0484 6.49684C28.959 10.6134 22.9995 14.098 15.7315 15.5217C11.701 16.3121 7.80478 16.3615 4.37598 15.8003C7.041 10.4576 12.846 6.50318 19.3629 5.22641Z" fill="#222221"/>
<path d="M15.402 8.29541C14.4254 8.34228 13.6477 8.60192 13.0004 9.12885C12.3963 9.62157 12.2633 10.1878 12.609 10.6311C12.9624 11.0833 13.5514 11.1403 14.2912 10.7527C14.9055 10.431 15.4603 10.0231 16.1937 9.89897C16.6332 9.82424 16.9638 9.55443 16.9536 9.11111C16.941 8.60192 16.5281 8.41318 16.0442 8.33464C15.7985 8.29285 15.5439 8.30301 15.402 8.29541Z" fill="white"/>
<path d="M11.132 10.9819C10.652 11.0566 10.2049 11.6874 10.2885 12.151C10.3518 12.5031 10.5988 12.6754 10.9927 12.6209C11.4753 12.555 11.9022 11.9369 11.8008 11.4708C11.7261 11.1288 11.4968 10.954 11.132 10.9819Z" fill="white"/>
<path d="M36.5986 19.2811C36.8874 19.2406 37.1205 19.0164 37.1673 18.7251C37.2193 18.4211 37.0559 18.1234 36.7747 17.9993C35.0596 17.2456 33.1685 17.0101 31.1495 17.2963C28.5415 17.6674 26.6618 18.7834 26.5833 18.8315C26.316 18.9936 26.1931 19.3191 26.2894 19.6155C26.3857 19.9119 26.6732 20.1045 26.9848 20.0791L36.5593 19.2862C36.5733 19.2849 36.586 19.2837 36.5986 19.2811Z" fill="#222221"/>
<path d="M10.0398 23.2608C9.75105 23.3013 9.46605 23.1519 9.33812 22.8859C9.20512 22.6085 9.27732 22.2766 9.51292 22.079C10.9493 20.8782 12.7011 20.1258 14.7214 19.8383C17.3294 19.4672 19.4459 20.0182 19.5346 20.041C19.8373 20.122 20.0438 20.3994 20.0349 20.711C20.0261 21.0239 19.8019 21.2874 19.4953 21.3507L10.0804 23.2545C10.0664 23.257 10.0525 23.2582 10.0398 23.2608Z" fill="#222221"/>
<path d="M29.5604 27.3685C29.6909 28.4427 30.6674 29.2077 31.7428 29.0772C32.8169 28.948 33.5832 27.9702 33.4528 26.8948C33.3223 25.8207 32.3445 25.0544 31.2704 25.1861C30.195 25.3153 29.4299 26.2944 29.5604 27.3685Z" fill="#222221"/>
<path d="M14.3795 29.8307C14.5099 30.9061 15.4865 31.6711 16.5619 31.5394C17.6386 31.4089 18.4023 30.4311 18.2719 29.357C18.1414 28.2829 17.1648 27.5178 16.0895 27.6483C15.0141 27.78 14.2503 28.7566 14.3795 29.8307Z" fill="#222221"/>
<path d="M26.7736 28.0891C27.246 29.4432 27.4715 30.763 27.5411 32.1095C27.5627 32.5313 27.5449 32.9632 27.4829 33.3799C27.2815 34.7061 26.4214 35.5851 25.1003 35.7511C23.688 35.9271 22.2896 35.7675 20.9191 35.3964C20.6405 35.3204 20.3656 35.1811 20.1275 35.0164C19.2041 34.3805 19.1268 33.5066 19.9071 32.6984C20.0426 32.5579 20.1908 32.4261 20.3453 32.3045C21.5297 31.3723 21.9337 30.1107 21.897 28.6579C21.8831 28.1018 21.8678 27.5457 21.8754 26.9897C21.883 26.4627 21.9704 25.9422 22.1693 25.4532C22.7304 24.0764 24.1921 23.8167 25.1472 24.9554C25.9312 25.894 26.4278 27.0036 26.7736 28.0891Z" fill="#59B08F"/>
<path d="M26.405 42.7555C26.1669 42.8113 25.93 42.8442 25.7008 42.8556C23.8236 42.9531 21.6766 41.7397 21.2029 39.2317C21.1307 38.8505 21.379 38.4794 21.7628 38.411C22.144 38.3388 22.5113 38.5895 22.5835 38.9708C22.9065 40.6858 24.3594 41.5167 25.6273 41.4521C26.8331 41.3888 28.1872 40.4907 28.381 38.1551C28.4139 37.7687 28.7496 37.4812 29.1397 37.5129C29.526 37.5458 29.8135 37.8853 29.7819 38.2716C29.5476 41.0798 27.944 42.3958 26.405 42.7555Z" fill="#59B08F"/>
<path d="M16.8671 38.2629C17.4105 40.586 15.9666 42.9102 13.6435 43.4536C11.3205 43.997 8.99621 42.553 8.45282 40.23C7.90943 37.907 9.35342 35.5827 11.6764 35.0393C14.0007 34.4959 16.3238 35.9386 16.8671 38.2629Z" fill="#59B08F"/>
<path d="M41.6416 34.1855C42.1849 36.5086 40.7422 38.8329 38.4179 39.3763C36.0949 39.9197 33.7706 38.4757 33.2272 36.1526C32.6838 33.8296 34.1278 31.5053 36.4508 30.9619C38.7739 30.4198 41.0982 31.8625 41.6416 34.1855Z" fill="#59B08F"/>
</svg>
