<svg width="186" height="60" viewBox="0 0 186 60" fill="none" xmlns="http://www.w3.org/2000/svg">
<path d="M43 50C44.25 50 45.3125 49.5625 46.1875 48.6875C47.0625 47.8125 47.5 46.75 47.5 45.5C47.5 44.625 47.25 43.8025 46.75 43.0325C46.25 42.2625 45.5833 41.71 44.75 41.375L35 37.5V31.875C37 34.1667 39.25 35.99 41.75 37.345C44.25 38.7 46.9583 39.5433 49.875 39.875C50.5833 39.9583 51.1975 39.7608 51.7175 39.2825C52.2375 38.8042 52.4983 38.21 52.5 37.5C52.5 36.7917 52.2708 36.1875 51.8125 35.6875C51.3542 35.1875 50.7708 34.8958 50.0625 34.8125C47.7708 34.4792 45.6667 33.7708 43.75 32.6875C41.8333 31.6042 40.0833 30.125 38.5 28.25L35.125 24.25C34.625 23.6667 34.0417 23.2292 33.375 22.9375C32.7083 22.6458 32 22.5 31.25 22.5H28.75C28 22.5 27.2917 22.6458 26.625 22.9375C25.9583 23.2292 25.375 23.6667 24.875 24.25L21.5 28.25C19.9167 30.125 18.1667 31.6042 16.25 32.6875C14.3333 33.7708 12.2292 34.4792 9.9375 34.8125C9.22917 34.8958 8.64583 35.1875 8.1875 35.6875C7.72917 36.1875 7.5 36.7917 7.5 37.5C7.5 38.2083 7.76083 38.8025 8.2825 39.2825C8.80416 39.7625 9.41833 39.96 10.125 39.875C13.0417 39.5417 15.75 38.6983 18.25 37.345C20.75 35.9917 23 34.1683 25 31.875V37.5L15.25 41.375C14.4167 41.7083 13.75 42.2608 13.25 43.0325C12.75 43.8042 12.5 44.6267 12.5 45.5C12.5 46.75 12.9375 47.8125 13.8125 48.6875C14.6875 49.5625 15.75 50 17 50H35V48.75C35 47.6667 34.6458 46.7708 33.9375 46.0625C33.2292 45.3542 32.3333 45 31.25 45H23.75C23.375 45 23.0725 44.8858 22.8425 44.6575C22.6125 44.4292 22.4983 44.1267 22.5 43.75C22.5 43.375 22.6142 43.0725 22.8425 42.8425C23.0708 42.6125 23.3733 42.4983 23.75 42.5H31.25C33 42.5 34.4792 43.1042 35.6875 44.3125C36.8958 45.5208 37.5 47 37.5 48.75V50H43Z" fill="#F6F1F1"/>
<path fill-rule="evenodd" clip-rule="evenodd" d="M30 11C28.6739 11 27.4021 11.5268 26.4645 12.4645C25.5268 13.4021 25 14.6739 25 16C25 17.3261 25.5268 18.5979 26.4645 19.5355C27.4021 20.4732 28.6739 21 30 21C31.3261 21 32.5979 20.4732 33.5355 19.5355C34.4732 18.5979 35 17.3261 35 16C35 14.6739 34.4732 13.4021 33.5355 12.4645C32.5979 11.5268 31.3261 11 30 11ZM27.3879 16.8736C27.3879 16.8262 27.4067 16.7808 27.4402 16.7473C27.4736 16.7138 27.5191 16.695 27.5664 16.695H32.4107C32.4581 16.695 32.5035 16.7138 32.537 16.7473C32.5705 16.7808 32.5893 16.8262 32.5893 16.8736C32.5893 17.2679 32.3964 17.8286 31.9807 18.29C31.5593 18.7586 30.9064 19.1279 29.9879 19.1279C29.0707 19.1279 28.4179 18.7586 27.9957 18.29C27.5807 17.8286 27.3886 17.2686 27.3886 16.8736H27.3879ZM28.2729 15.2686C28.0788 15.2684 27.8927 15.1911 27.7556 15.0537C27.6877 14.9857 27.6339 14.905 27.5972 14.8162C27.5605 14.7273 27.5417 14.6322 27.5418 14.5361C27.5419 14.44 27.5609 14.3448 27.5978 14.2561C27.6346 14.1673 27.6886 14.0867 27.7566 14.0188C27.894 13.8817 28.0802 13.8048 28.2743 13.805H28.2764C28.4705 13.8053 28.6565 13.8827 28.7936 14.0201C28.9306 14.1575 29.0074 14.3438 29.0071 14.5379C29.0069 14.7319 28.9295 14.918 28.7921 15.055C28.6546 15.192 28.4684 15.2689 28.2743 15.2686H28.2729ZM31.7236 15.2686C31.5295 15.2683 31.3435 15.1909 31.2064 15.0535C31.0694 14.916 30.9926 14.7298 30.9929 14.5357C30.9931 14.3416 31.0705 14.1556 31.208 14.0186C31.3454 13.8815 31.5316 13.8047 31.7257 13.805H31.7271C31.9212 13.8052 32.1073 13.8825 32.2444 14.0198C32.3815 14.1572 32.4584 14.3434 32.4582 14.5375C32.458 14.7316 32.3807 14.9176 32.2434 15.0547C32.106 15.1918 31.9198 15.2688 31.7257 15.2686H31.7236Z" fill="#F6F1F1"/>
<path d="M87.88 45L75.68 30.32L87.56 16.88H94.36L81.12 31.48L81.16 28.96L94.8 45H87.88ZM70.88 45V16.88H76.32V45H70.88ZM104.142 45.4C102.382 45.4 100.796 44.96 99.3822 44.08C97.9689 43.2 96.8622 42 96.0622 40.48C95.2622 38.96 94.8622 37.2533 94.8622 35.36C94.8622 33.44 95.2622 31.72 96.0622 30.2C96.8622 28.68 97.9689 27.48 99.3822 26.6C100.796 25.72 102.382 25.28 104.142 25.28C105.529 25.28 106.769 25.56 107.862 26.12C108.956 26.68 109.822 27.4667 110.462 28.48C111.129 29.4667 111.489 30.5867 111.542 31.84V38.8C111.489 40.08 111.129 41.2133 110.462 42.2C109.822 43.1867 108.956 43.9733 107.862 44.56C106.769 45.12 105.529 45.4 104.142 45.4ZM105.102 40.56C106.569 40.56 107.756 40.08 108.662 39.12C109.569 38.1333 110.022 36.8667 110.022 35.32C110.022 34.3067 109.809 33.4133 109.382 32.64C108.982 31.84 108.409 31.2267 107.662 30.8C106.942 30.3467 106.089 30.12 105.102 30.12C104.142 30.12 103.289 30.3467 102.542 30.8C101.822 31.2267 101.249 31.84 100.822 32.64C100.422 33.4133 100.222 34.3067 100.222 35.32C100.222 36.36 100.422 37.28 100.822 38.08C101.249 38.8533 101.822 39.4667 102.542 39.92C103.289 40.3467 104.142 40.56 105.102 40.56ZM109.742 45V39.8L110.582 35.08L109.742 30.44V25.68H114.942V45H109.742ZM119.578 45V16.08H124.818V45H119.578ZM129.461 45V25.68H134.701V45H129.461ZM142.061 45V33.6C142.061 32.48 141.701 31.6133 140.981 31C140.287 30.36 139.421 30.04 138.381 30.04C137.687 30.04 137.061 30.1867 136.501 30.48C135.941 30.7467 135.501 31.1467 135.181 31.68C134.861 32.2133 134.701 32.8533 134.701 33.6L132.661 32.6C132.661 31.1067 132.981 29.8133 133.621 28.72C134.287 27.6267 135.181 26.7867 136.301 26.2C137.421 25.5867 138.687 25.28 140.101 25.28C141.434 25.28 142.647 25.5867 143.741 26.2C144.834 26.7867 145.701 27.6267 146.341 28.72C146.981 29.7867 147.301 31.08 147.301 32.6V45H142.061ZM154.661 45V33.6C154.661 32.48 154.301 31.6133 153.581 31C152.887 30.36 152.021 30.04 150.981 30.04C150.314 30.04 149.687 30.1867 149.101 30.48C148.541 30.7467 148.101 31.1467 147.781 31.68C147.461 32.2133 147.301 32.8533 147.301 33.6L144.301 32.88C144.407 31.3333 144.821 30 145.541 28.88C146.261 27.7333 147.207 26.8533 148.381 26.24C149.554 25.6 150.861 25.28 152.301 25.28C153.741 25.28 155.034 25.5867 156.181 26.2C157.327 26.7867 158.234 27.64 158.901 28.76C159.567 29.88 159.901 31.2133 159.901 32.76V45H154.661ZM172.228 45.4C170.468 45.4 168.881 44.96 167.468 44.08C166.055 43.2 164.948 42 164.148 40.48C163.348 38.96 162.948 37.2533 162.948 35.36C162.948 33.44 163.348 31.72 164.148 30.2C164.948 28.68 166.055 27.48 167.468 26.6C168.881 25.72 170.468 25.28 172.228 25.28C173.615 25.28 174.855 25.56 175.948 26.12C177.041 26.68 177.908 27.4667 178.548 28.48C179.215 29.4667 179.575 30.5867 179.628 31.84V38.8C179.575 40.08 179.215 41.2133 178.548 42.2C177.908 43.1867 177.041 43.9733 175.948 44.56C174.855 45.12 173.615 45.4 172.228 45.4ZM173.188 40.56C174.655 40.56 175.841 40.08 176.748 39.12C177.655 38.1333 178.108 36.8667 178.108 35.32C178.108 34.3067 177.895 33.4133 177.468 32.64C177.068 31.84 176.495 31.2267 175.748 30.8C175.028 30.3467 174.175 30.12 173.188 30.12C172.228 30.12 171.375 30.3467 170.628 30.8C169.908 31.2267 169.335 31.84 168.908 32.64C168.508 33.4133 168.308 34.3067 168.308 35.32C168.308 36.36 168.508 37.28 168.908 38.08C169.335 38.8533 169.908 39.4667 170.628 39.92C171.375 40.3467 172.228 40.56 173.188 40.56ZM177.828 45V39.8L178.668 35.08L177.828 30.44V25.68H183.028V45H177.828Z" fill="#F6F1F1"/>
</svg>
