<svg width="52" height="55" viewBox="0 0 52 55" fill="none" xmlns="http://www.w3.org/2000/svg">
<path d="M49.0928 31.1439C50.5315 18.3901 41.3589 6.8848 28.6052 5.44604C15.8514 4.00728 4.34611 13.1799 2.90735 25.9337C1.46859 38.6874 10.6412 50.1927 23.3949 51.6315C36.1487 53.0702 47.654 43.8976 49.0928 31.1439Z" fill="#7A9FD7"/>
<path d="M21.4441 5.39598C25.5354 4.59799 29.6368 5.01978 33.3265 6.25856C33.2682 5.66957 33.2657 5.19081 33.3024 4.43335C33.4012 2.38519 33.8496 0.742348 34.3031 0.763881C34.7553 0.785414 35.0415 2.45105 34.9453 4.48782C35.6419 3.5885 36.2626 3.06031 36.5273 3.21611C36.9187 3.44791 36.388 5.06541 35.343 6.83112C35.2759 6.94512 35.2594 6.96792 35.191 7.07685C38.5691 8.53095 42.0663 10.7881 43.8852 13.6887C43.6167 13.7622 43.3457 13.828 43.0657 13.8812C38.6844 14.7362 34.6096 12.7552 33.9662 9.45938C33.7926 8.56893 33.8978 7.67722 34.2132 6.82857C34.1676 6.81083 34.122 6.79183 34.0751 6.7741C34.0624 6.76903 34.0485 6.76525 34.0346 6.76019C30.9401 10.8755 24.9768 14.355 17.7062 15.7736C13.6745 16.5602 9.82012 16.5982 6.39258 16.0333C9.34386 10.8071 14.9247 6.66769 21.4441 5.39598Z" fill="#222221"/>
<path d="M17.3845 8.5437C16.4079 8.59057 15.6302 8.84894 14.9816 9.37586C14.3762 9.86859 14.2432 10.4335 14.589 10.8781C14.9411 11.3303 15.5314 11.3873 16.2711 11.001C16.8867 10.6793 17.4415 10.2714 18.1748 10.1485C18.6144 10.0738 18.945 9.804 18.9348 9.36067C18.9234 8.85148 18.5092 8.66151 18.0266 8.58297C17.7809 8.54244 17.5263 8.5513 17.3845 8.5437Z" fill="white"/>
<path d="M13.112 11.2275C12.6307 11.3009 12.1849 11.9317 12.2672 12.3953C12.3305 12.7474 12.5763 12.9197 12.9715 12.8665C13.454 12.8007 13.8822 12.1825 13.7808 11.7164C13.7061 11.3757 13.4768 11.1996 13.112 11.2275Z" fill="white"/>
<path d="M29.3343 37.1053C29.3343 37.1053 29.328 37.104 29.3255 37.1028C28.6541 36.548 27.8409 36.282 27.029 36.4365C27.0189 36.4378 27.01 36.4403 26.9999 36.4428C26.953 36.453 26.9062 36.4631 26.8606 36.4758C26.0322 36.6949 25.3799 37.3307 25.0011 38.1819L24.9935 38.1883C24.6515 38.9597 24.5363 39.9084 24.7237 40.8875C25.1316 43.0243 26.8238 44.4974 28.5059 44.177C30.1868 43.8565 31.2204 41.8641 30.8125 39.7272C30.6022 38.624 30.0512 37.6994 29.3343 37.1053Z" fill="#9CBDF6"/>
<path d="M14.0029 41.1433C16.3933 41.1433 18.331 39.2056 18.331 36.8152C18.331 34.4249 16.3933 32.4871 14.0029 32.4871C11.6126 32.4871 9.6748 34.4249 9.6748 36.8152C9.6748 39.2056 11.6126 41.1433 14.0029 41.1433Z" fill="#547DB3"/>
<path d="M38.3086 37.4902C40.6989 37.4902 42.6367 35.5525 42.6367 33.1621C42.6367 30.7718 40.6989 28.834 38.3086 28.834C35.9182 28.834 33.9805 30.7718 33.9805 33.1621C33.9805 35.5525 35.9182 37.4902 38.3086 37.4902Z" fill="#547DB3"/>
<path d="M32.7427 23.2115C32.7123 23.2153 32.6807 23.2204 32.6503 23.2267C31.9675 23.3445 31.371 23.7219 30.9707 24.2894C30.5717 24.8568 30.4172 25.5446 30.5362 26.2286C30.5958 26.5744 30.9074 26.8138 31.2696 26.7454C31.6141 26.6859 31.8459 26.3565 31.7851 26.012C31.7243 25.6624 31.8029 25.3116 32.0081 25.0202C32.212 24.7302 32.5173 24.5377 32.8669 24.4769C33.2329 24.4085 33.5686 24.4946 33.8599 24.6985C34.15 24.9024 34.3438 25.2077 34.4046 25.5573C34.4641 25.9031 34.7922 26.1475 35.1379 26.0741C35.4837 26.0146 35.7143 25.6852 35.6547 25.3407C35.5357 24.6567 35.1582 24.0601 34.5908 23.6611C34.0486 23.2786 33.3963 23.1215 32.7427 23.2115Z" fill="#222221"/>
<path d="M17.4771 25.2356C17.4467 25.2394 17.415 25.2445 17.3846 25.2508C16.7019 25.3686 16.1041 25.746 15.7051 26.3135C15.3061 26.881 15.1515 27.57 15.2706 28.2527C15.3289 28.5909 15.6455 28.8189 15.9825 28.7721C15.9901 28.7708 15.9977 28.7695 16.0053 28.7683C16.3498 28.7087 16.5816 28.3794 16.5221 28.0349C16.4613 27.6853 16.5398 27.3344 16.745 27.0443C16.9489 26.7543 17.2542 26.5605 17.6038 26.501C17.9483 26.4338 18.3055 26.5187 18.5956 26.7226C18.8856 26.9266 19.0794 27.2318 19.1402 27.5814C19.201 27.9259 19.543 28.1628 19.8736 28.0982C20.2194 28.0387 20.4499 27.7094 20.3904 27.3648C20.2713 26.6808 19.8939 26.0842 19.3264 25.6852C18.783 25.3027 18.1307 25.1444 17.4771 25.2356Z" fill="#222221"/>
<path d="M36.3171 20.2032C36.6059 20.2438 36.8909 20.093 37.0176 19.8258C37.1505 19.5471 37.0771 19.2165 36.8402 19.0189C35.3988 17.822 33.6457 17.0721 31.6255 16.7909C29.0149 16.4274 26.9009 16.9835 26.8109 17.0075C26.5082 17.0886 26.3017 17.3685 26.3119 17.6789C26.322 17.9904 26.5462 18.2552 26.8527 18.316L36.2766 20.1957C36.2905 20.1995 36.3044 20.202 36.3171 20.2032Z" fill="#222221"/>
<path d="M12.9159 23.7435C12.6524 23.8677 12.3358 23.8106 12.1344 23.594C11.9254 23.3686 11.895 23.0304 12.0622 22.772C13.0768 21.1988 14.5258 19.9588 16.37 19.0835C18.7501 17.9549 20.935 17.8511 21.0262 17.846C21.3391 17.8334 21.619 18.0373 21.7026 18.3375C21.7862 18.6389 21.6519 18.9581 21.3771 19.1076L12.9501 23.7245C12.94 23.7321 12.9273 23.7385 12.9159 23.7435Z" fill="#222221"/>
<path d="M28.0183 26.2033C28.4895 27.5586 28.715 28.8785 28.7821 30.2249C28.8036 30.6467 28.7859 31.0786 28.7226 31.4954C28.5199 32.8215 27.6599 33.7006 26.3375 33.864C24.9252 34.0388 23.5255 33.8779 22.155 33.5055C21.8764 33.4295 21.6015 33.2902 21.3634 33.1255C20.44 32.4884 20.364 31.6144 21.1455 30.8063C21.281 30.6657 21.4292 30.534 21.5838 30.4124C22.7693 29.4801 23.1747 28.2186 23.1392 26.767C23.1253 26.2109 23.1113 25.6536 23.1202 25.0976C23.1278 24.5706 23.2152 24.05 23.4153 23.5611C23.9777 22.1843 25.4394 21.9259 26.3945 23.0659C27.1785 24.007 27.6738 25.1165 28.0183 26.2033Z" fill="#9CBDF6"/>
<path d="M34.1122 36.097C33.8019 36.0096 33.5409 35.8145 33.3193 35.5638C33.1052 35.3206 32.9494 35.0432 32.8354 34.7404C32.5745 34.0476 32.5023 33.3243 32.4871 32.5909C32.4655 31.5662 32.5567 30.5478 32.6454 29.5282C32.7163 28.7125 32.8012 27.8993 32.9355 27.0924C32.9785 26.8378 33.1217 26.6719 33.3699 26.6098C33.5954 26.5528 33.8551 26.6694 33.9868 26.886C34.0514 26.9911 34.0957 27.1089 34.1401 27.2254C34.2553 27.5244 34.3604 27.8271 34.4808 28.1235C34.9228 29.2204 35.3687 30.3173 35.7246 31.4472C35.997 32.3135 36.2351 33.1901 36.2591 34.1071C36.2693 34.4656 36.2313 34.8164 36.1021 35.1546C35.7968 35.9653 34.9507 36.3744 34.1122 36.097Z" fill="white"/>
</svg>
